<svg width="24" height="24" xmlns="http://www.w3.org/2000/svg"><path d="M15.364 6.108l.005-.012-.002.006-.003.006zm-.17.428l-.124.327c-.733 1.917-1.445 2.664-3.247 2.648-1.62-.015-2.457-.908-3.32-2.833a59.123 59.123 0 0 1-.116-.26c-2.01.455-3.406 1.098-4.119 2.1l-2.24 11.18 2.007.663 1.876-7.988c.135-.578.986-.48.986.114v9.564h9.82v-9.564c0-.594.852-.692.987-.114l1.876 7.988 2.007-.663-2.24-11.182c-.76-1.086-1.949-1.621-4.107-2.097l-.046.117zm-3.026-1.234l2.198.606c.01-.024.02-.047.028-.07l.053-.127.032-.073a.5.5 0 0 1 .558-.285c2.724.563 4.196 1.183 5.197 2.688l.074.18 2.347 11.715a.5.5 0 0 1-.334.573l-2.946.973a.5.5 0 0 1-.643-.36l-1.014-4.32v5.749a.5.5 0 0 1-.5.5H6.398a.5.5 0 0 1-.5-.5v-5.747l-1.014 4.317a.5.5 0 0 1-.644.36l-2.946-.972a.5.5 0 0 1-.333-.573L3.308 8.22l.074-.179c.932-1.401 2.676-2.167 5.197-2.688a.5.5 0 0 1 .558.286l.081.184 1.947-.536c.056-.521.198-.826.51-1.117.112-.105.598-.481.65-.523.142-.116.23-.332.23-.59 0-.484-.407-.881-.915-.881-.509 0-.916.397-.916.881a.5.5 0 0 1-1 0c0-1.041.86-1.881 1.916-1.881 1.055 0 1.916.84 1.916 1.881 0 .54-.207 1.044-.599 1.365-.084.068-.527.411-.6.48-.105.097-.16.188-.189.4zM9.64 6.745c.625 1.252 1.202 1.757 2.193 1.766 1.181.01 1.634-.37 2.17-1.667l-2.362-.65-2 .55z" fill-rule="nonzero" fill="#FFFFFF"></path></svg>
