<svg width="24" height="24" xmlns="http://www.w3.org/2000/svg"><path d="M2.119 16.303h19.925l-1.557-5.399c-3.674-.714-11.63-.737-16.783.018l-1.585 5.381zm.82-12.23a.498.498 0 0 1-.048-.213c0-.994.813-1.802 1.82-1.857A.506.506 0 0 1 4.764 2h14.628c.076 0 .148.017.213.047.852.19 1.497.929 1.497 1.813a.498.498 0 0 1-.045.207.498.498 0 0 1 .05.22v5.742a.5.5 0 0 1 .256.308l1.825 6.327c.035.12.023.241-.024.344a.502.502 0 0 1 .012.11v4.49a.5.5 0 0 1-.5.5h-3.144a.5.5 0 0 1-.5-.5v-1.775H5.126v1.775a.5.5 0 0 1-.5.5H1.481a.5.5 0 0 1-.5-.5v-4.49c0-.038.005-.075.013-.11a.496.496 0 0 1-.024-.346l1.865-6.328a.5.5 0 0 1 .07-.145.501.501 0 0 1-.014-.114V4.288c0-.077.018-.15.048-.214zm.904 0c.031.066.048.138.048.215v5.598c.278-.038.562-.074.853-.108v-.809c0-1.106.94-2.001 2.077-2.001h3.574c.689 0 1.305.328 1.684.833.38-.505.996-.833 1.683-.833h3.575c1.137 0 2.077.894 2.077 2.001v.754c.242.03.474.064.695.1V4.288c0-.074.016-.145.045-.208a.498.498 0 0 1-.051-.22c0-.465-.415-.86-.93-.86H4.82c-.515 0-.929.394-.929.86 0 .076-.017.149-.048.214zm1.9 5.599c1.801-.174 3.779-.273 5.73-.301v-.402c0-.543-.483-1.001-1.078-1.001H6.821c-.595 0-1.077.459-1.077 1.001v.703zm12.67-.062v-.64c0-.544-.48-1.002-1.076-1.002h-3.575c-.594 0-1.077.46-1.077 1.001v.393c2.074.002 4.067.085 5.729.248zm3.764 7.693H1.981v3.805h2.145v-1.775a.5.5 0 0 1 .5-.5h14.907a.5.5 0 0 1 .5.5v1.775h2.144v-3.805z" fill-rule="nonzero" fill="#FFFFFF"></path></svg>
