<svg width="24" height="24" xmlns="http://www.w3.org/2000/svg"><path d="M8.152 14.065v-1h7.696v1H8.152zm.5 1.913h-.5v-1h7.696v1H8.652zm10.708-.085a1.81 1.81 0 1 1 0-3.62 1.81 1.81 0 0 1 0 3.62zm0-1a.81.81 0 1 0 0-1.62.81.81 0 0 0 0 1.62zm-14.667 1a1.81 1.81 0 1 1 0-3.62 1.81 1.81 0 0 1 0 3.62zm0-1a.81.81 0 1 0 0-1.62.81.81 0 0 0 0 1.62zm7.336-11.338l.003-.054c4.646.284 6.823.618 7.227 1.289.257.425.766 1.472 1.543 3.165 1.258-.395 2.183-.087 2.572.98.38 1.04-.088 1.835-1.218 2.299.495 1.045.776 1.784.848 2.248.083.528.038 1.641-.129 3.414-.128 1.02-1.309 1.582-3.451 1.873-1.952.266-4.426.398-7.424.398s-5.472-.132-7.424-.398c-2.142-.29-3.323-.854-3.453-1.889-.165-1.757-.21-2.87-.127-3.398.072-.464.353-1.203.848-2.248C.714 10.77.246 9.975.626 8.936c.39-1.068 1.314-1.376 2.572-.981.777-1.693 1.286-2.74 1.543-3.165.402-.669 2.564-1.003 7.234-1.286l.054.051zm-6.432 1.75c-.249.414-.815 1.586-1.681 3.486l-.201.44-.447-.186c-1.025-.43-1.5-.324-1.703.234-.201.551.074.9 1.106 1.179l.587.158-.268.545c-.606 1.23-.943 2.072-1.006 2.476-.065.413-.022 1.482.133 3.134.048.377.881.775 2.594 1.007 1.901.259 4.332.389 7.289.389s5.388-.13 7.29-.389c1.712-.232 2.545-.63 2.591-.991.157-1.668.2-2.737.135-3.15-.063-.404-.4-1.246-1.006-2.476l-.268-.545.587-.158c1.032-.28 1.307-.628 1.106-1.18-.204-.557-.678-.662-1.703-.233l-.447.187-.2-.441c-.867-1.9-1.433-3.072-1.682-3.485-.121-.202-2.486-.565-6.405-.805-3.916.24-6.28.603-6.4.805zm-3.5 14.847h2.572v-1.804h1v1.804a1 1 0 0 1-1 1H2.096a1 1 0 0 1-1-.982L1 14.82l1.014.766.082 4.566zm0 0h2.572v-1.804h1v1.804a1 1 0 0 1-1 1H2.096a1 1 0 0 1-1-.982L1 14.82l1.014.766.082 4.566zm19.785 0H19.31v-1.804h-1v1.803a1 1 0 0 0 1 1h2.572a1 1 0 0 0 1-.982l.097-5.349-1.014.766-.083 4.565zm0 0H19.31v-1.804h-1v1.803a1 1 0 0 0 1 1h2.572a1 1 0 0 0 1-.982l.097-5.349-1.014.766-.083 4.565z" fill-rule="nonzero" fill="#9027B0"></path></svg>
