<svg width="24" height="24" xmlns="http://www.w3.org/2000/svg"><path d="M2.674 6.518a.417.417 0 0 0-.424.411c0 .226.188.411.424.411a.418.418 0 0 0 .424-.41.418.418 0 0 0-.424-.412zm0-1c.785 0 1.424.63 1.424 1.411 0 .78-.64 1.411-1.424 1.411-.785 0-1.424-.63-1.424-1.41 0-.782.639-1.412 1.424-1.412zm6.616 12.25c-1.056 0-1.91.841-1.91 1.875 0 1.033.854 1.875 1.91 1.875 1.055 0 1.908-.841 1.908-1.875s-.853-1.875-1.908-1.875zm0-1c1.604 0 2.908 1.286 2.908 2.875s-1.304 2.875-2.908 2.875c-1.605 0-2.91-1.286-2.91-2.875 0-1.59 1.305-2.875 2.91-2.875zm9.588 1c-1.055 0-1.908.841-1.908 1.875s.853 1.875 1.908 1.875c1.056 0 1.91-.842 1.91-1.875 0-1.034-.854-1.875-1.91-1.875zm0-1c1.605 0 2.91 1.286 2.91 2.875s-1.305 2.875-2.91 2.875c-1.604 0-2.908-1.286-2.908-2.875 0-1.59 1.304-2.875 2.908-2.875zM6.73 9.946h15.143a.5.5 0 0 1 .499.54c-.347 4.258-3.96 7.56-8.31 7.56-4.267 0-7.83-3.178-8.287-7.327a.5.5 0 0 1-.02-.136l.002-.04-.005-.047a.503.503 0 0 1 0-.105c-.026-1.006-.259-1.723-.673-2.17-.331-.359-.824-.583-1.496-.668a.5.5 0 1 1 .125-.993c.892.113 1.602.437 2.105.981.53.572.831 1.377.917 2.405zm7.331 7.1c3.646 0 6.698-2.628 7.25-6.1H6.813c.551 3.476 3.607 6.1 7.247 6.1zM6.263 10.08h-.008v.5l.5-.004v-.089a.5.5 0 0 0-.492-.407zm.484.316l.007.091a7.15 7.15 0 0 0 .06.459h-.427a.505.505 0 0 1-.137-.019.5.5 0 0 1 .137-.98h.343a7.515 7.515 0 0 1 .023.526.5.5 0 0 1-.5.473H6.25v-.5l.497-.05zm14.628-.19c-.257-3.486-2.532-6.366-5.56-7.183l-1.694 7.26a.5.5 0 0 1-.974-.228l1.808-7.745a.5.5 0 0 1 .582-.377c3.715.722 6.533 4.098 6.835 8.199a.5.5 0 1 1-.997.073z" fill-rule="nonzero" fill="#9027B0"></path></svg>
