<svg width="24" height="24" xmlns="http://www.w3.org/2000/svg"><path d="M3.34 9.52v9.96h17.32V9.52H3.34zm-1-1h19.32v11.96H2.34V8.52zM20.906 4H3.094L1.826 8.44h20.348L20.906 4zM2.34 3h19.32l1.84 6.44H.5L2.34 3zm8.605 16.547v-5.232c0-.88-.783-1.615-1.752-1.615-.97 0-1.753.735-1.753 1.615v5.232h3.505zM6.44 14.315c0-1.447 1.245-2.615 2.753-2.615s2.752 1.168 2.752 2.615v6.232H6.44v-6.232zm8.86.565h1.68V13.2H15.3v1.68zm-1-2.68h3.68v3.68H14.3V12.2zM1.42 20.52a.5.5 0 1 1 0-1h21.16a.5.5 0 1 1 0 1H1.42z" fill-rule="nonzero" fill="#FFFFFF"></path></svg>
