<svg width="24" height="24" xmlns="http://www.w3.org/2000/svg"><path d="M22 15.377A4 4 0 1 1 15.53 18h-3.219a6 6 0 1 1-9.85-5.938l.019-1.015c.006-.288.01-.485.012-.685.005-.326.008-.607.008-.862 0-.7.75-1.256 1.5-1.437V5.136l.022-.146C4.412 3.713 5.066 3 6 3h7v1H6c-.389 0-.727.358-1 1.213V8h3.5c.708 0 .975.343 1.224 1.092.126.376.15.408.276.408h6.49c2.581-.054 4.01.558 4.01 2 0 .236-.006.824-.006.897l.001.103c.991 0 1.467.535 1.515 1.36.008.135.006.248-.003.444-.006.121-.007.153-.007.196v.877zm-1-.586V14.5c0-.065.001-.103.008-.242.008-.163.01-.25.004-.34-.02-.33-.098-.418-.512-.418-.652 0-.817-.039-.954-.524-.04-.143-.051-.296-.052-.577 0-.08.006-.67.006-.899 0-.656-.905-1.044-3-1H10c-.708 0-.975-.343-1.224-1.092C8.65 9.032 8.626 9 8.5 9h-4c-.392 0-1 .345-1 .5 0 .261-.003.547-.008.878a154.94 154.94 0 0 1-.017.94A6 6 0 0 1 12.48 17l3.31-.001A4.001 4.001 0 0 1 21 14.79zM6.5 21.5a5 5 0 1 0 0-10 5 5 0 0 0 0 10zm13 0a3 3 0 1 0 0-6 3 3 0 0 0 0 6zm-13-3a2 2 0 1 1 0-4 2 2 0 0 1 0 4zm0-1a1 1 0 1 0 0-2 1 1 0 0 0 0 2zm11-7.5h-1V7c0-.39-.11-.5-.5-.5v-1c.943 0 1.5.557 1.5 1.5v3zm-4.022-.147l-.956.294-2-6.5.956-.294 2 6.5z" fill="#FFFFFF"></path></svg>
