<svg width="24" height="24" xmlns="http://www.w3.org/2000/svg"><path d="M18.336 3.258l.157-.198-.373-.374a.5.5 0 1 1 .709-.706l.291.293.158-.198-.288-.29a.5.5 0 1 1 .708-.705l.25.25a.5.5 0 0 1 .55.107l2.3 2.309a.5.5 0 0 1 .105.551l.251.252a.5.5 0 1 1-.708.706l-.286-.287-.197.158.295.296a.5.5 0 0 1-.709.705l-.37-.371-.197.158.379.38a.5.5 0 1 1-.708.706l-.429-.43a.51.51 0 0 1-.006-.006l-3.834 3.848a.5.5 0 1 1-.708-.706l4.02-4.034a.504.504 0 0 1 .056-.054l1.945-1.56-1.51-1.518-1.554 1.95a.503.503 0 0 1-.06.062L14.56 8.581a.5.5 0 1 1-.709-.706l3.837-3.85a.51.51 0 0 1-.009-.01l-.428-.43a.5.5 0 0 1 .709-.705l.376.378zM8.616 18.56a.5.5 0 1 1-.71.706l-3.062-3.074a.5.5 0 1 1 .708-.706l3.063 3.074zm3.284-6.19a1.499 1.499 0 0 0-2.125 0 1.516 1.516 0 0 0 0 2.139c.587.59 1.538.59 2.125 0a1.516 1.516 0 0 0 0-2.138zm.708-.705c.977.98.977 2.57 0 3.55a2.498 2.498 0 0 1-3.542 0 2.516 2.516 0 0 1 0-3.55 2.499 2.499 0 0 1 3.542 0zm2.17-2.035l-.078-.077-.057-.059.341-.366.354.353a.5.5 0 0 1-.681.028c-1.99-1.933-4.004-2.537-4.979-1.56-.12.121-.233.393-.429 1.015l-.03.095c-.281.896-.446 1.271-.799 1.567-.572.48-1.202.634-2.737.824l-.426.053c-1.344.175-2.048.4-2.499.88-1.616 1.721-.742 4.628 1.778 7.245a.496.496 0 0 1-.006.7l-.355-.352.362-.345.07.07.058.058-.341.367-.355-.353a.5.5 0 0 1 .682-.028c2.63 2.55 5.523 3.426 7.237 1.805.479-.452.702-1.16.876-2.51l.054-.427c.189-1.54.342-2.172.82-2.746.295-.354.67-.519 1.562-.802l.095-.03c.62-.196.89-.31 1.01-.43.975-.979.372-3.003-1.534-4.98a.496.496 0 0 1 .006-.7l.356.352-.355.353zm.577-.838l.053.055.062.06a.69.69 0 0 1 .05.055c2.213 2.31 2.967 4.87 1.493 6.349-.284.285-.614.423-1.416.678l-.095.03c-.678.215-.978.346-1.096.488-.303.364-.433.902-.596 2.228l-.054.434c-.203 1.57-.479 2.444-1.181 3.108-2.214 2.093-5.632 1.067-8.568-1.764a.506.506 0 0 1-.038-.035l-.068-.07-.075-.073a.704.704 0 0 1-.039-.043c-2.82-2.945-3.842-6.374-1.758-8.594.662-.706 1.534-.983 3.099-1.186.117-.016.218-.028.432-.055 1.32-.163 1.856-.294 2.218-.597.142-.12.273-.42.488-1.101.014-.048.014-.048.03-.095.252-.805.39-1.135.674-1.42 1.476-1.481 4.03-.723 6.33 1.497.01.007.027.024.055.051z" fill-rule="nonzero" fill="#9027B0"></path></svg>
