<svg width="24px" height="24px" xmlns="http://www.w3.org/2000/svg">
    <path d="M2.03041178,20.4235144 L21.9701965,20.4235144 L2.03041178,20.4235144 Z M4.12639134,20.4235144 L4.12639134,12.728727 L4.12639134,20.4235144 Z M9.04336719,20.4235144 L9.04336719,12.728727 L9.04336719,20.4235144 Z M19.8742169,20.4235144 L19.8742169,12.728727 L19.8742169,20.4235144 Z M4.26689374,3 L19.7355392,3 L21.9659388,8.2004136 C21.9884435,8.32753482 22,8.45891369 22,8.59333374 C22,9.8225777 21.0037102,10.8194757 19.773858,10.8194757 C18.9387507,10.8194757 18.211301,10.3596497 17.8305456,9.67903412 C17.4497902,10.3596497 16.7223405,10.8194757 15.8872331,10.8194757 C15.0521258,10.8194757 14.3246761,10.3596497 13.9439207,9.67903412 C13.562557,10.3596497 12.8351074,10.8194757 12,10.8194757 C11.1648926,10.8194757 10.437443,10.3596497 10.0566875,9.67903412 C9.67593212,10.3596497 8.94848245,10.8194757 8.1133751,10.8194757 C7.27826775,10.8194757 6.55081808,10.3596497 6.16945441,9.67903412 C5.78869898,10.3596497 5.06124932,10.8194757 4.22614196,10.8194757 C2.996898,10.8194757 2,9.8225777 2,8.59333374 C2,8.45891369 2.01155647,8.32753482 2.03466942,8.2004136 L4.26689374,3 Z M6.1366097,9.50507877 L7.12560063,3.27127304 L6.1366097,9.50507877 Z M10.0098534,9.50507877 C10.119944,7.42734627 10.2294264,5.34900553 10.3395171,3.27127304 L10.0098534,9.50507877 Z M13.8824889,9.50507877 C13.7730065,7.42734627 13.6629159,5.34900553 13.5534335,3.27127304 L13.8824889,9.50507877 Z M17.7557326,9.50507877 L16.7673499,3.27127304 L17.7557326,9.50507877 Z M7.40721367,16.6743507 L7.40721367,15.2218843 L7.40721367,16.6743507 Z M13.1033392,17.7089593 L17.6006326,13.1502342 L13.1033392,17.7089593 Z M14.6908339,18.9649656 L17.7326197,15.8812116 L14.6908339,18.9649656 Z" fill="none" stroke="#FFFFFF" stroke-linecap="round" stroke-linejoin="round"></path>
</svg>
