<svg width="24" height="24" xmlns="http://www.w3.org/2000/svg"><path d="M2.41 6.858c-.175-2.22.97-3.64 2.568-3.524 1.54.111 2.633 1.61 2.361 3.567-.253 1.822-1.023 2.927-2.136 3.178-1.19.269-2.659-1.505-2.794-3.221zm.996-.079C3.5 7.97 4.524 9.207 4.983 9.103c.645-.145 1.164-.89 1.366-2.34.195-1.405-.504-2.364-1.443-2.432-.934-.067-1.63.796-1.5 2.448zM2.31 17.364c-2.22-2.206.408-5.93 3.945-6 .536-.01.894-.148 1.536-.525l.218-.13c.162-.093.29-.163.42-.226 1.94-.941 5.148.688 5.72 2.827.027.103.052.21.074.32.046.231.068.385.123.813.073.57.123.82.193.994.742 1.206 1.133 2.432 1.124 3.575-.016 2.034-1.335 3.773-3.287 3.452-1.356-.162-2.053-.54-2.893-1.384-.022-.023-.312-.318-.4-.404a6.667 6.667 0 0 0-.43-.393 5.178 5.178 0 0 0-1-.651c-.764-.386-1.203-.514-2.549-.816-1.406-.316-2.088-.623-2.794-1.452zm.717-.697l.032.035c.536.634 1.043.864 2.265 1.138 1.424.32 1.918.464 2.78.899.453.228.836.482 1.189.775.166.138.321.28.493.45.094.093.388.393.406.41.69.694 1.187.964 2.324 1.1 1.243.204 2.136-.972 2.147-2.47.008-.941-.326-1.988-1.008-3.105-.154-.354-.215-.664-.3-1.329a9.695 9.695 0 0 0-.113-.743 4.168 4.168 0 0 0-.06-.259c-.414-1.55-2.96-2.843-4.316-2.186-.104.05-.211.11-.354.192l-.214.126c-.777.458-1.276.65-2.023.664-2.782.055-4.74 2.84-3.248 4.303zM20.033 15.5c1.418-.857 1.714-1.925 1.115-2.644-.602-.724-1.789-.733-2.817.244-1.06 1.007-1.364 1.864-1.106 2.474.183.433 1.786.544 2.808-.074zm.517.856c-1.474.891-3.772.731-4.246-.393-.444-1.052.005-2.322 1.338-3.588 1.432-1.36 3.287-1.346 4.275-.16 1.025 1.232.538 2.99-1.367 4.141zm-2.155-6.862c1.318-1.485 1.277-2.84.313-3.467-.966-.627-2.348-.21-3.18 1.278-.852 1.52-.895 2.618-.37 3.24.394.468 2.28.025 3.237-1.051zm.747.664c-1.308 1.47-3.87 2.074-4.75 1.032-.833-.99-.772-2.526.263-4.374 1.104-1.973 3.126-2.583 4.597-1.627 1.524.99 1.586 3.06-.11 4.969zM8.682 4.532C9.276 2.05 11.01.915 12.693 1.598c1.625.66 2.282 2.668 1.295 4.703-.924 1.906-2.149 2.834-3.437 2.716-1.357-.124-2.329-2.571-1.87-4.485zm.972.233c-.336 1.4.38 3.2.99 3.256.81.074 1.685-.589 2.445-2.156.744-1.535.295-2.907-.772-3.34-1.065-.433-2.2.31-2.663 2.24z" fill-rule="nonzero" fill="#FFFFFF"></path></svg>
