<svg width="24" height="24" xmlns="http://www.w3.org/2000/svg"><path d="M18.611 20.908l.13-16.617.033-.999c.033-.97-.545-1.34-1.534-1.34H6.468c-.752 0-1.371.627-1.371 1.394v17.566c0 .766.62 1.394 1.37 1.394H17.24c.745 0 1.365-.63 1.371-1.398zm1 .008c-.01 1.313-1.072 2.39-2.371 2.39H6.468c-1.305 0-2.371-1.078-2.371-2.394V3.346C4.097 2.029 5.16.95 6.467.95H17.24c1.482 0 2.59.712 2.534 2.374l-.033.987-.13 16.604zm-8.936-.286a.5.5 0 0 1 0-1h2.357a.5.5 0 1 1 0 1h-2.357zm-5.772-1.913a.5.5 0 1 1 0-1h13.79a.5.5 0 1 1 0 1H4.902zM5.041 4.37a.5.5 0 1 1 0-1h13.79a.5.5 0 1 1 0 1H5.04z" fill-rule="nonzero" fill="#9027B0"></path></svg>
