<svg width="24" height="24" xmlns="http://www.w3.org/2000/svg"><path d="M7.63 8.72A17.385 17.385 0 0 1 9.25 6.775a23.65 23.65 0 0 0-4.3-1.754.5.5 0 1 1 .284-.958 24.656 24.656 0 0 1 4.766 1.979c.39-.36.799-.702 1.223-1.025-1.505-1.14-2.032-2.004-1.795-3.44a.5.5 0 0 1 .987.164c-.17 1.027.243 1.635 1.662 2.665A17.254 17.254 0 0 1 16.759 2.2a.5.5 0 0 1 .285.959 16.256 16.256 0 0 0-4.072 1.856c1.017.632 1.789.878 2.77.985.138.015.264.027.496.046 1.168.1 1.733.19 2.634.476 2.576.819 3.939 2.878 4.065 6.615a.5.5 0 1 1-1 .034c-.112-3.337-1.222-5.014-3.368-5.696-.814-.26-1.317-.338-2.416-.432-.24-.02-.372-.033-.52-.05-1.245-.135-2.227-.478-3.556-1.367-.403.296-.792.609-1.164.939A24.899 24.899 0 0 1 20.949 18.03a.5.5 0 1 1-.919.396 23.9 23.9 0 0 0-9.875-11.148c-.636.64-1.22 1.331-1.742 2.067 1.475 1.286 2.274 2.515 2.682 3.946.168.59.252 1.088.381 2.09.376 2.93.851 4.348 2.674 6.664a.5.5 0 0 1-.786.618c-1.954-2.482-2.482-4.06-2.88-7.154-.122-.955-.2-1.416-.351-1.944-.345-1.21-1.01-2.252-2.279-3.38a16.283 16.283 0 0 0-2.435 9.476.5.5 0 1 1-.999.052A17.281 17.281 0 0 1 7.072 9.549c-1.63-1.15-3.21-.91-5.118 1.713a.5.5 0 1 1-.809-.588C3.395 7.58 5.58 7.289 7.63 8.72zM12 1c6.075 0 11 4.925 11 11s-4.925 11-11 11S1 18.075 1 12 5.925 1 12 1zm0 1C6.477 2 2 6.477 2 12s4.477 10 10 10 10-4.477 10-10S17.523 2 12 2z" fill-rule="nonzero" fill="#FFFFFF"></path></svg>
