<svg width="100" height="14" viewBox="0 0 128 18" fill="none" data-testid="compraSeguraIcon" xmlns="http://www.w3.org/2000/svg"><path d="M32.5524 4.79451L31.2274 5.9766C30.8944 5.61105 30.499 5.31672 30.0412 5.09359C29.5879 4.86572 29.0931 4.75178 28.5566 4.75178C27.9138 4.75178 27.3126 4.92031 26.753 5.25738C26.198 5.59444 25.754 6.05493 25.421 6.63886C25.0881 7.22279 24.9216 7.85656 24.9216 8.54018C24.9216 9.47541 25.2245 10.2445 25.8303 10.8474C26.4408 11.4503 27.1946 11.7518 28.0918 11.7518C29.1139 11.7518 30.0042 11.3625 30.7626 10.5839L31.9419 11.8657C31.4748 12.3832 30.9037 12.7843 30.2285 13.0692C29.5532 13.354 28.841 13.4964 28.0918 13.4964C27.3842 13.4964 26.716 13.3706 26.087 13.119C25.458 12.8674 24.917 12.5232 24.4637 12.0865C24.0151 11.6497 23.659 11.1251 23.3954 10.5127C23.1318 9.89556 23 9.23805 23 8.54018C23 7.53849 23.252 6.61275 23.7561 5.76297C24.2602 4.90844 24.9331 4.23432 25.7748 3.74059C26.6212 3.24686 27.5299 3 28.5011 3C29.3613 3 30.1337 3.15904 30.8181 3.47711C31.5072 3.79518 32.0853 4.23432 32.5524 4.79451Z" fill="#6E0AD6"></path><path d="M34.8347 10.0427C34.8347 10.527 34.9943 10.9329 35.3134 11.2604C35.6325 11.588 36.0279 11.7518 36.4996 11.7518C37.0268 11.7518 37.4824 11.5524 37.8662 11.1536C38.2501 10.7548 38.442 10.2825 38.442 9.73652C38.442 9.25229 38.2824 8.84639 37.9633 8.51882C37.6442 8.19125 37.2511 8.02747 36.784 8.02747C36.2568 8.02747 35.799 8.22686 35.4105 8.62564C35.0266 9.02441 34.8347 9.49678 34.8347 10.0427ZM40.2873 9.73652C40.2873 10.2492 40.1855 10.7382 39.982 11.2035C39.7785 11.6687 39.5057 12.0699 39.1635 12.4069C38.8212 12.7392 38.4166 13.0051 37.9495 13.2045C37.487 13.3991 37.0037 13.4964 36.4996 13.4964C36.0094 13.4964 35.5446 13.4062 35.1052 13.2258C34.6705 13.0407 34.2982 12.7938 33.9884 12.4852C33.6831 12.1767 33.4403 11.8111 33.26 11.3886C33.0796 10.9613 32.9894 10.5127 32.9894 10.0427C32.9894 9.3591 33.1629 8.7277 33.5097 8.14852C33.8566 7.56934 34.319 7.1136 34.8971 6.78128C35.4798 6.44897 36.1088 6.28281 36.784 6.28281C37.4407 6.28281 38.0373 6.4371 38.5738 6.74568C39.1103 7.05426 39.5288 7.47202 39.8294 7.99898C40.1346 8.52594 40.2873 9.10512 40.2873 9.73652Z" fill="#6E0AD6"></path><path d="M42.4031 6.42523H44.1235L44.0264 6.93794C44.6368 6.50119 45.2612 6.28281 45.8994 6.28281C46.3526 6.28281 46.7665 6.38488 47.1411 6.58901C47.5203 6.7884 47.8418 7.07087 48.1054 7.43642C49.0072 6.66734 49.9206 6.28281 50.8455 6.28281C51.3173 6.28281 51.7659 6.38962 52.1913 6.60325C52.6168 6.81214 52.9683 7.11834 53.2458 7.52187C53.588 8.03933 53.7591 8.64225 53.7591 9.33062C53.7591 9.66294 53.7198 10.076 53.6412 10.5697L53.1625 13.354H51.3034L51.8375 10.2492C51.8977 9.88844 51.9277 9.61071 51.9277 9.41607C51.9277 9.0078 51.8144 8.67548 51.5878 8.41912C51.3658 8.15802 51.056 8.02747 50.6582 8.02747C49.9923 8.02747 49.3402 8.37402 48.702 9.06714C48.7112 9.12411 48.7158 9.21194 48.7158 9.33062C48.7158 9.66294 48.6765 10.076 48.5979 10.5697L48.1192 13.354H46.2532L46.7943 10.2492C46.8544 9.88844 46.8844 9.61071 46.8844 9.41607C46.8844 9.0078 46.7711 8.67548 46.5445 8.41912C46.3225 8.15802 46.0127 8.02747 45.615 8.02747C44.9999 8.02747 44.4079 8.31943 43.8391 8.90336L43.076 13.354H41.2099L42.4031 6.42523Z" fill="#6E0AD6"></path><path d="M57.6716 8.78942L57.2901 11.0468C57.4936 11.2604 57.741 11.429 58.0324 11.5524C58.3284 11.6758 58.6266 11.7375 58.9273 11.7375C59.4683 11.7375 59.9308 11.5381 60.3147 11.1394C60.7032 10.7358 60.8974 10.235 60.8974 9.63682C60.8974 9.15734 60.754 8.76806 60.4673 8.46897C60.1852 8.16514 59.8036 8.01322 59.3227 8.01322C58.6983 8.01322 58.148 8.27196 57.6716 8.78942ZM56.2981 16.8576H54.432L56.2218 6.42523H57.9144L57.8451 6.89522C58.363 6.48694 58.9874 6.28281 59.7181 6.28281C60.1251 6.28281 60.5135 6.36351 60.8835 6.52492C61.2535 6.68159 61.5749 6.89997 61.8478 7.18006C62.1253 7.46016 62.3449 7.80671 62.5068 8.21973C62.6687 8.62801 62.7496 9.06951 62.7496 9.54425C62.7496 10.2231 62.5831 10.8806 62.2501 11.5168C61.9218 12.1482 61.4755 12.6348 60.9113 12.9766C60.3147 13.3232 59.695 13.4964 59.0521 13.4964C58.3677 13.4964 57.6763 13.2638 56.9779 12.7986L56.2981 16.8576Z" fill="#6E0AD6"></path><path d="M68.9444 6.3825L68.4172 8.09156C68.2553 8.04883 68.1004 8.02747 67.9524 8.02747C67.6379 8.02747 67.3258 8.12479 67.0159 8.31943C66.7061 8.51407 66.4633 8.73482 66.2875 8.98169L65.5383 13.354H63.6722L64.8654 6.42523H66.5858L66.4748 7.00915C66.6737 6.78128 66.9257 6.60325 67.231 6.47508C67.5408 6.3469 67.8715 6.28281 68.223 6.28281C68.4866 6.28281 68.7271 6.31604 68.9444 6.3825Z" fill="#6E0AD6"></path><path d="M75.3335 6.42523H77.04L75.8468 13.354H74.1542L74.2236 12.884C73.7056 13.2923 73.0813 13.4964 72.3506 13.4964C71.5135 13.4964 70.799 13.1926 70.207 12.5849C69.6196 11.9725 69.326 11.1892 69.326 10.235C69.326 9.55612 69.4902 8.90098 69.8185 8.26958C70.1469 7.63343 70.5932 7.14446 71.1574 6.80264C71.754 6.45609 72.3737 6.28281 73.0165 6.28281C73.7935 6.28281 74.5288 6.54866 75.2225 7.08037L75.3335 6.42523ZM74.397 10.9898L74.7785 8.73245C74.575 8.51882 74.3276 8.35266 74.0363 8.23398C73.7449 8.11055 73.4489 8.04883 73.1483 8.04883C72.6072 8.04883 72.1424 8.24822 71.754 8.647C71.3655 9.04578 71.1712 9.54425 71.1712 10.1424C71.1712 10.6219 71.3123 11.0136 71.5944 11.3174C71.8811 11.6165 72.265 11.766 72.746 11.766C73.3703 11.766 73.9206 11.5073 74.397 10.9898Z" fill="#6E0AD6"></path><path d="M81.1884 11.8087L82.5065 10.5697C82.7562 10.8973 83.0753 11.1773 83.4638 11.41C83.8523 11.6378 84.2962 11.7518 84.7957 11.7518C85.0501 11.7518 85.2975 11.7019 85.538 11.6022C85.7831 11.4978 85.9912 11.3388 86.1623 11.1251C86.3334 10.9067 86.419 10.6575 86.419 10.3774C86.419 10.1306 86.3496 9.90742 86.2109 9.70804C86.0768 9.5039 85.901 9.32825 85.6837 9.18108C85.4663 9.03391 85.2258 8.88911 84.9622 8.74669C84.7032 8.60427 84.4419 8.44998 84.1783 8.28382C83.9147 8.11767 83.6742 7.93489 83.4569 7.7355C83.2395 7.53611 83.0614 7.28688 82.9227 6.98779C82.7886 6.68396 82.7215 6.3469 82.7215 5.9766C82.7215 5.41166 82.8718 4.90132 83.1724 4.44557C83.473 3.98983 83.88 3.63615 84.3934 3.38454C84.9067 3.12818 85.4732 3 86.093 3C86.7034 3 87.2769 3.12106 87.8134 3.36317C88.3498 3.60054 88.803 3.91624 89.173 4.31027L87.9105 5.59206C87.707 5.3452 87.4549 5.14344 87.1543 4.98677C86.8537 4.83011 86.5231 4.75178 86.1623 4.75178C85.76 4.75178 85.4016 4.86572 85.0871 5.09359C84.7726 5.32146 84.6153 5.62055 84.6153 5.99084C84.6153 6.17599 84.6824 6.34927 84.8165 6.51068C84.9553 6.67209 85.1333 6.81926 85.3507 6.95219C85.568 7.08511 85.8062 7.22279 86.0652 7.36521C86.3288 7.50288 86.5901 7.66429 86.8491 7.84944C87.1127 8.02984 87.3532 8.2316 87.5706 8.45473C87.7879 8.67311 87.9637 8.94608 88.0978 9.27365C88.2365 9.60122 88.3059 9.96439 88.3059 10.3632C88.3059 10.9471 88.1463 11.4812 87.8272 11.9654C87.5127 12.4449 87.0873 12.8199 86.5508 13.0905C86.0143 13.3611 85.4293 13.4964 84.7957 13.4964C84.065 13.4964 83.3921 13.3469 82.777 13.0478C82.1619 12.744 81.6324 12.331 81.1884 11.8087Z" fill="#6E0AD6"></path><path d="M94.9378 11.4313L95.7008 12.7131C94.9979 13.2353 94.1562 13.4964 93.1757 13.4964C92.5236 13.4964 91.9271 13.3564 91.386 13.0763C90.8495 12.7962 90.4194 12.3879 90.0957 11.8515C89.7719 11.3103 89.6101 10.6931 89.6101 10C89.6101 9.34961 89.7581 8.74195 90.054 8.17701C90.3546 7.61207 90.7778 7.15632 91.3235 6.80977C91.8739 6.45846 92.482 6.28281 93.148 6.28281C94.0267 6.28281 94.7574 6.58901 95.3401 7.20142C95.9228 7.81383 96.2142 8.57579 96.2142 9.48728C96.2142 9.78637 96.1772 10.0831 96.1032 10.3774H91.3097C91.3466 10.8332 91.5316 11.213 91.8646 11.5168C92.1976 11.8159 92.6393 11.9654 93.1896 11.9654C93.7954 11.9654 94.3782 11.7874 94.9378 11.4313ZM91.5247 9.03866H94.466C94.4383 8.6826 94.2995 8.39064 94.0498 8.16277C93.8047 7.93015 93.4995 7.81383 93.1341 7.81383C92.7688 7.81383 92.4427 7.92302 92.156 8.1414C91.8692 8.35978 91.6588 8.65887 91.5247 9.03866Z" fill="#6E0AD6"></path><path d="M103.304 6.42523H105.01L103.859 13.119C103.757 13.7172 103.644 14.2038 103.519 14.5788C103.394 14.9539 103.232 15.2838 103.033 15.5687C102.349 16.5229 101.322 17 99.9533 17C99.3474 17 98.7532 16.8647 98.1704 16.5941C97.5877 16.3235 97.1253 15.9627 96.783 15.5117L98.0317 14.2869C98.2398 14.5527 98.5057 14.7782 98.8295 14.9634C99.1578 15.1533 99.5371 15.2482 99.9672 15.2482C100.573 15.2482 101.026 15.0773 101.327 14.7355C101.627 14.3937 101.847 13.8691 101.986 13.1617L102.014 13.0193C101.574 13.3374 101.01 13.4964 100.321 13.4964C99.4839 13.4964 98.7693 13.1926 98.1774 12.5849C97.59 11.9725 97.2964 11.1892 97.2964 10.235C97.2964 9.55612 97.4605 8.90098 97.7889 8.26958C98.1173 7.63343 98.5636 7.14446 99.1278 6.80264C99.7244 6.45609 100.344 6.28281 100.987 6.28281C101.764 6.28281 102.499 6.54866 103.193 7.08037L103.304 6.42523ZM102.367 10.9898L102.749 8.73245C102.545 8.51882 102.298 8.35266 102.007 8.23398C101.715 8.11055 101.419 8.04883 101.119 8.04883C100.578 8.04883 100.113 8.24822 99.7244 8.647C99.3359 9.04578 99.1416 9.54425 99.1416 10.1424C99.1416 10.6219 99.2827 11.0136 99.5648 11.3174C99.8515 11.6165 100.235 11.766 100.716 11.766C101.341 11.766 101.891 11.5073 102.367 10.9898Z" fill="#6E0AD6"></path><path d="M112.558 13.354H110.838L110.935 12.8413C110.324 13.2781 109.7 13.4964 109.062 13.4964C108.59 13.4964 108.153 13.3872 107.751 13.1689C107.353 12.9457 107.022 12.6419 106.759 12.2574C106.421 11.7494 106.252 11.1465 106.252 10.4486C106.252 10.0878 106.289 9.6748 106.363 9.20956L106.849 6.42523H108.708L108.167 9.53001C108.111 9.86233 108.084 10.14 108.084 10.3632C108.084 10.7525 108.201 11.0824 108.437 11.353C108.678 11.6189 108.995 11.7518 109.388 11.7518C109.975 11.7518 110.553 11.4598 111.122 10.8759L111.892 6.42523H113.751L112.558 13.354Z" fill="#6E0AD6"></path><path d="M119.904 6.3825L119.377 8.09156C119.215 8.04883 119.06 8.02747 118.912 8.02747C118.598 8.02747 118.286 8.12479 117.976 8.31943C117.666 8.51407 117.423 8.73482 117.247 8.98169L116.498 13.354H114.632L115.825 6.42523H117.546L117.435 7.00915C117.634 6.78128 117.886 6.60325 118.191 6.47508C118.501 6.3469 118.831 6.28281 119.183 6.28281C119.447 6.28281 119.687 6.31604 119.904 6.3825Z" fill="#6E0AD6"></path><path d="M126.293 6.42523H128L126.807 13.354H125.114L125.184 12.884C124.666 13.2923 124.041 13.4964 123.311 13.4964C122.473 13.4964 121.759 13.1926 121.167 12.5849C120.58 11.9725 120.286 11.1892 120.286 10.235C120.286 9.55612 120.45 8.90098 120.778 8.26958C121.107 7.63343 121.553 7.14446 122.117 6.80264C122.714 6.45609 123.334 6.28281 123.976 6.28281C124.753 6.28281 125.489 6.54866 126.182 7.08037L126.293 6.42523ZM125.357 10.9898L125.738 8.73245C125.535 8.51882 125.288 8.35266 124.996 8.23398C124.705 8.11055 124.409 8.04883 124.108 8.04883C123.567 8.04883 123.102 8.24822 122.714 8.647C122.325 9.04578 122.131 9.54425 122.131 10.1424C122.131 10.6219 122.272 11.0136 122.554 11.3174C122.841 11.6165 123.225 11.766 123.706 11.766C124.33 11.766 124.881 11.5073 125.357 10.9898Z" fill="#6E0AD6"></path><path fill-rule="evenodd" clip-rule="evenodd" d="M15.2991 13.8206C16.8902 11.8318 17.7548 9.35945 17.7499 6.8125V2.4375C17.7499 1.85734 17.5194 1.30094 17.1092 0.890704C16.699 0.480468 16.1426 0.25 15.5624 0.25H2.4374C1.85724 0.25 1.30084 0.480468 0.890603 0.890704C0.480367 1.30094 0.249898 1.85734 0.249898 2.4375V6.8125C0.245018 9.35945 1.10961 11.8318 2.70068 13.8206C4.29175 15.8095 6.514 17.1957 8.9999 17.75C11.4858 17.1957 13.7081 15.8095 15.2991 13.8206ZM11.0466 3.13993C11.1457 2.6905 10.8618 2.2458 10.4123 2.14669C9.96288 2.04757 9.51819 2.33156 9.41907 2.78099L9.23002 3.6382C8.78913 3.67429 8.37972 3.78433 8.00179 3.96832C7.53163 4.19298 7.15889 4.50876 6.88357 4.91568C6.60825 5.3226 6.47059 5.77826 6.47059 6.28267C6.47059 6.61329 6.53201 6.91424 6.65484 7.18552C6.78191 7.45256 6.94499 7.67509 7.14407 7.85312C7.34314 8.03114 7.5634 8.19433 7.80483 8.34269C8.04627 8.49104 8.28558 8.6288 8.52278 8.75597C8.76421 8.88313 8.98446 9.01241 9.18354 9.14381C9.38262 9.27521 9.54357 9.43204 9.66641 9.61431C9.79348 9.79233 9.85701 9.99155 9.85701 10.212C9.85701 10.4621 9.77865 10.6846 9.62193 10.8796C9.46521 11.0703 9.27461 11.2123 9.05012 11.3056C8.82986 11.3946 8.60325 11.4391 8.37029 11.4391C7.91284 11.4391 7.50621 11.3373 7.15042 11.1339C7.06233 11.0825 6.97814 11.0285 6.89785 10.9718C6.51853 10.7044 5.9812 10.6516 5.63904 10.9652C5.32056 11.2571 5.28881 11.7568 5.62421 12.029C5.89717 12.2506 6.19624 12.4397 6.52142 12.5962C6.73943 12.6996 6.96537 12.7829 7.19924 12.8463L7.08591 13.3602C6.98679 13.8096 7.27078 14.2543 7.72021 14.3534C8.16965 14.4525 8.61434 14.1685 8.71346 13.7191L8.87993 12.9643C9.26768 12.9136 9.63361 12.8036 9.97773 12.6344C10.4691 12.3928 10.8587 12.0579 11.1468 11.6298C11.439 11.1975 11.5852 10.7206 11.5852 10.1993C11.5852 9.8432 11.5216 9.51894 11.3946 9.22646C11.2717 8.93399 11.1108 8.69026 10.9117 8.49528C10.7126 8.29606 10.4924 8.11592 10.2509 7.95485C10.0137 7.78954 9.77441 7.64542 9.53298 7.5225C9.29578 7.39533 9.07765 7.27241 8.87857 7.15373C8.6795 7.03504 8.51642 6.90364 8.38935 6.75953C8.26652 6.61541 8.2051 6.4607 8.2051 6.29538C8.2051 5.96476 8.34911 5.69772 8.63714 5.49427C8.92516 5.29081 9.25343 5.18908 9.62193 5.18908C9.95232 5.18908 10.2552 5.25902 10.5305 5.39889L10.5603 5.41428C10.9665 5.62746 11.5017 5.6635 11.8278 5.3408C12.1336 5.0381 12.1423 4.53781 11.784 4.29949C11.5846 4.1669 11.368 4.05015 11.1341 3.94925C11.0535 3.91381 10.972 3.88127 10.8897 3.85164L11.0466 3.13993Z" fill="#6E0AD6"></path></svg>