<svg width="19" height="19" viewBox="0 0 19 19" xmlns="http://www.w3.org/2000/svg"><title>B0A8F6A5-92F3-4017-A866-5D8B3E0A910C</title><path d="M9.24 18.5c5.103 0 9.24-4.142 9.24-9.25C18.48 4.14 14.343 0 9.24 0 4.137 0 0 4.141 0 9.25c0 5.108 4.137 9.25 9.24 9.25zm1.06-6.133l-.069-.073c-1.621-.917-2.933-2.36-3.735-4.109h.149a1.65 1.65 0 0 0 1.518-1.003l-1.86-2.978-.67.02a6.44 6.44 0 0 0-1.43 1.162 8.725 8.725 0 0 0-.003.24c0 4.959 3.732 9.003 8.412 9.22.092-.006.168 0 .244 0 .081 0 .161-.003.24-.004a6.453 6.453 0 0 0 1.16-1.431l.024-.824-2.656-1.809c-.746.15-1.31.802-1.323 1.59z" fill="#9027B0" fill-rule="evenodd"></path></svg>
