<svg xmlns="http://www.w3.org/2000/svg" width="56.303" height="25.025" viewBox="0 0 56.303 25.025">
  <g id="Grupo_55" data-name="Grupo 55" transform="translate(-3871.698 -2018)">
    <path id="Icon_awesome-tree" data-name="Icon awesome-tree" d="M18.49,18.5l-3.9-4.423h1.5a1.111,1.111,0,0,0,1.016-.638,1.077,1.077,0,0,0-.16-1.175L13.119,7.82h1.412a1.107,1.107,0,0,0,1.02-.665,1.087,1.087,0,0,0-.207-1.177L9.954.236a.805.805,0,0,0-1.14,0L3.424,5.978a1.088,1.088,0,0,0-.207,1.177,1.108,1.108,0,0,0,1.02.665H5.649L1.83,12.263a1.079,1.079,0,0,0-.16,1.175,1.11,1.11,0,0,0,1.016.638h1.5L.278,18.5A1.08,1.08,0,0,0,.1,19.684a1.134,1.134,0,0,0,1.027.648H7.82v1.195L6.34,23.892a.782.782,0,0,0,.7,1.132h4.69a.782.782,0,0,0,.7-1.132l-1.48-2.366V20.332h6.689a1.134,1.134,0,0,0,1.027-.648A1.08,1.08,0,0,0,18.49,18.5Z" transform="translate(3909.232 2018)" fill="#69d750"/>
    <path id="Icon_awesome-tree-2" data-name="Icon awesome-tree" d="M18.49,18.5l-3.9-4.423h1.5a1.111,1.111,0,0,0,1.016-.638,1.077,1.077,0,0,0-.16-1.175L13.119,7.82h1.412a1.107,1.107,0,0,0,1.02-.665,1.087,1.087,0,0,0-.207-1.177L9.954.236a.805.805,0,0,0-1.14,0L3.424,5.978a1.088,1.088,0,0,0-.207,1.177,1.108,1.108,0,0,0,1.02.665H5.649L1.83,12.263a1.079,1.079,0,0,0-.16,1.175,1.11,1.11,0,0,0,1.016.638h1.5L.278,18.5A1.08,1.08,0,0,0,.1,19.684a1.134,1.134,0,0,0,1.027.648H7.82v1.195L6.34,23.892a.782.782,0,0,0,.7,1.132h4.69a.782.782,0,0,0,.7-1.132l-1.48-2.366V20.332h6.689a1.134,1.134,0,0,0,1.027-.648A1.08,1.08,0,0,0,18.49,18.5Z" transform="translate(3890.465 2018)" fill="#69d750"/>
    <path id="Icon_awesome-tree-3" data-name="Icon awesome-tree" d="M18.49,18.5l-3.9-4.423h1.5a1.111,1.111,0,0,0,1.016-.638,1.077,1.077,0,0,0-.16-1.175L13.119,7.82h1.412a1.107,1.107,0,0,0,1.02-.665,1.087,1.087,0,0,0-.207-1.177L9.954.236a.805.805,0,0,0-1.14,0L3.424,5.978a1.088,1.088,0,0,0-.207,1.177,1.108,1.108,0,0,0,1.02.665H5.649L1.83,12.263a1.079,1.079,0,0,0-.16,1.175,1.11,1.11,0,0,0,1.016.638h1.5L.278,18.5A1.08,1.08,0,0,0,.1,19.684a1.134,1.134,0,0,0,1.027.648H7.82v1.195L6.34,23.892a.782.782,0,0,0,.7,1.132h4.69a.782.782,0,0,0,.7-1.132l-1.48-2.366V20.332h6.689a1.134,1.134,0,0,0,1.027-.648A1.08,1.08,0,0,0,18.49,18.5Z" transform="translate(3871.697 2018)" fill="#69d750"/>
  </g>
</svg>